/* XPM */
static char *bitcoin___[] = {
/* columns rows colors chars-per-pixel */
<<<<<<< HEAD
"16 16 128 2",
"   c #3D3E3D",
".  c #3F3F3E",
"X  c #3E403E",
"o  c #434343",
"O  c #444444",
"+  c #454545",
"@  c #535353",
"#  c #565655",
"$  c #585858",
"%  c #646560",
"&  c #656564",
"*  c #696A68",
"=  c #696A69",
"-  c #808180",
";  c #828382",
":  c #8A8B8A",
">  c #8D8E8E",
",  c #939392",
"<  c #929393",
"1  c #939493",
"2  c #959695",
"3  c #969797",
"4  c #979898",
"5  c #999A9A",
"6  c #9A9B9B",
"7  c #9B9C9C",
"8  c #9D9E9E",
"9  c #9D9EA0",
"0  c #A0A1A0",
"q  c #A0A0A1",
"w  c #A2A3A3",
"e  c #A3A3A3",
"r  c #A2A3A5",
"t  c #A5A6A5",
"y  c #A6A6A6",
"u  c #A6A7A6",
"i  c #A6A7A7",
"p  c #A8A9A8",
"a  c #A8A9A9",
"s  c #A9A9A9",
"d  c #AAAAAA",
"f  c #AAABAB",
"g  c #ABACAB",
"h  c #ADAEAD",
"j  c #AEAEAE",
"k  c #AEAFAE",
"l  c #AEAFAF",
"z  c #AFAFAF",
"x  c #AFB0AF",
"c  c #B0B0B0",
"v  c #B1B2B1",
"b  c #B8B8B8",
"n  c #BCBDBC",
"m  c #BFBFBF",
"M  c #BEBFC0",
"N  c #BEBFC2",
"B  c #BFBFC2",
"V  c #C0C1C3",
"C  c #C2C3C3",
"Z  c #C3C3C6",
"A  c #C6C7C9",
"S  c #C7C8C8",
"D  c #C8C8CA",
"F  c #C9C9CB",
"G  c #C9CACC",
"H  c #CACBCD",
"J  c #CBCCCD",
"K  c #CCCDCE",
"L  c #CCCDCF",
"P  c #CECFD1",
"I  c #D0D0D0",
"U  c #D3D3D3",
"Y  c #D4D4D4",
"T  c #D4D4D5",
"R  c #D5D6D5",
"E  c #D4D5D6",
"W  c #D4D5D7",
"Q  c #D5D6D7",
"!  c #DADBDA",
"~  c #DCDDDE",
"^  c #DFDFE0",
"/  c #E2E2E1",
"(  c #E1E1E2",
")  c #E1E1E3",
"_  c #E3E3E4",
"`  c #E3E4E5",
"'  c #E4E4E5",
"]  c #E4E5E5",
"[  c #E5E5E5",
"{  c #E5E6E7",
"}  c #E6E6E7",
"|  c #E7E7E8",
" . c #E8E8E9",
".. c #E8E9E9",
"X. c #E9E9E9",
"o. c #E8E8EA",
"O. c #E8E9EA",
"+. c #EAEAEB",
"@. c #EAEBEB",
"#. c #EAEBEC",
"$. c #EBEBEC",
"%. c #EBECEC",
"&. c #EBECED",
"*. c #ECECEC",
"=. c #EEEEED",
"-. c #EDEDEE",
";. c #EEEEEF",
":. c #EFEFF0",
">. c #F0F0F0",
",. c #F0F0F1",
"<. c #F1F1F1",
"1. c #F1F2F1",
"2. c #F1F1F2",
"3. c #F1F2F2",
"4. c #F2F2F2",
"5. c #F2F2F3",
"6. c #F3F3F3",
"7. c #F3F3F4",
"8. c #F3F4F4",
"9. c #F6F6F6",
"0. c #F6F7F7",
"q. c #F8F8F8",
"w. c #F9F9F9",
"e. c #FAFAFA",
"r. c #FDFDFD",
"t. c #FEFEFE",
"y. c #FFFFFF",
"u. c None",
/* pixels */
"u.u.u.u.u.u.u.. . u.u.u.u.u.u.u.",
"u.u.u.u.+ = 3 k k 3 * + u.u.u.u.",
"u.u.u.$ k |  .^ ( 2.&.k $ u.u.u.",
"u.u.$ S  .H 9 3 8 t { *.S $ u.u.",
"u.+ x *.Q ^ f 2. .3 N T 0.v + u.",
"u.= *.w.7.T b r.! r | 7. . .= u.",
"u., 2.E Z r I r.I ; m Z A 2.1 u.",
". k { P J t &.r.E 6 F { 2.w.k . ",
". k w.2.p E r.*.f [ 2.( K { x X ",
"u.1 >.V - m r.( 0 k e > F 2.1 u.",
"u.& { *.m U w.w.2.2.>.g *. .& u.",
"u.+ p 0.g 5 k v c u 7 0 *.f + u.",
"u.u.# V #.&.2.( K N H  .C # u.u.",
"u.u.u.@ t  .0.{ ` #.{ t @ u.u.u.",
"u.u.u.u.o % : t t : % o u.u.u.u.",
"u.u.u.u.u.u.u.. . u.u.u.u.u.u.u."
=======
"16 16 65 1 ",
"  c #315A9B",
". c #315B9B",
"X c #315B9C",
"o c #325B9C",
"O c #325C9C",
"+ c #335C9C",
"@ c #335C9D",
"# c #335D9D",
"$ c #345D9D",
"% c #355E9D",
"& c #365E9E",
"* c #375F9E",
"= c #375F9F",
"- c #38609F",
"; c #3B63A0",
": c #3C63A1",
"> c #3C64A1",
", c #3E65A2",
"< c #3F66A2",
"1 c #4269A4",
"2 c #476CA6",
"3 c #496EA7",
"4 c #4A6EA7",
"5 c #4B6FA8",
"6 c #4B70A8",
"7 c #4F72AA",
"8 c #5476AC",
"9 c #5C7DB0",
"0 c #5D7DB1",
"q c #6685B5",
"w c #6F8CB9",
"e c #6F8CBA",
"r c #718DBA",
"t c #7390BC",
"y c #7893BE",
"u c #8EA5C8",
"i c #8FA5C9",
"p c #A1B4D2",
"a c #A3B6D3",
"s c #A4B6D3",
"d c #B0C0D9",
"f c #B5C4DB",
"g c #BAC8DE",
"h c #BBC9DE",
"j c #C2CEE2",
"k c #C5D1E3",
"l c #CCD6E6",
"z c #CED8E7",
"x c #CFD9E8",
"c c #D0D9E8",
"v c #D2DBE9",
"b c #D8E0EC",
"n c #E0E7F0",
"m c #E1E7F1",
"M c #E8ECF4",
"N c #E8EDF4",
"B c #EAEEF5",
"V c #EBEFF5",
"C c #EEF1F7",
"Z c #F0F3F8",
"A c #FAFBFD",
"S c #FBFCFD",
"D c #FCFCFD",
"F c gray100",
"G c None",
/* pixels */
"GGGGGG$$$$GGGGGG",
"GGGG$$$+X+$$GGGG",
"GG$$$$+9ur$$$$GG",
"GG$$$$$fFp+$$$GG",
"G$$$$+3nFr.$$$$G",
"G$$$$.eAn3+$$$$G",
"$$$$$+pFg,$$$$$$",
"$$$$+1vFby+$$$$$",
"$$$X0hACr,+$$$$$",
"$$$@6dFk=+$X$$$$",
"G$$$;jFs3362$$$G",
"G$$@8NFCNNCg,$$G",
"GG$Xqzzvzvvi+$GG",
"GG$$$,::::,$$$GG",
"GGGG$$$$$$$$GGGG",
"GGGGGG$$$$GGGGGG"
>>>>>>> f22cd116c597213753b8cc77ff675ed5be18ec1d
};
