/* XPM */
static char *bitcoin___[] = {
/* columns rows colors chars-per-pixel */
<<<<<<< HEAD
"32 32 63 1",
"  c #3C3D3B",
". c #3F403E",
"X c #40413F",
"o c #434442",
"O c #484947",
"+ c #525351",
"@ c #575856",
"# c #585957",
"$ c #5B5C5A",
"% c #5F605E",
"& c #60615F",
"* c #636462",
"= c #6B6C6B",
"- c #737473",
"; c #777876",
": c #7A7A7A",
"> c #7F807F",
", c #838484",
"< c #878888",
"1 c #8B8B8B",
"2 c #8F908F",
"3 c #90908F",
"4 c #8F9091",
"5 c #929393",
"6 c #97989A",
"7 c #9A9B9B",
"8 c #9FA09F",
"9 c #A3A4A4",
"0 c #A7A8A7",
"q c #A7A8AA",
"w c #A9A9A9",
"e c #AEAFB0",
"r c #AFB0B1",
"t c #B3B4B4",
"y c #B6B7BA",
"u c #B7B8BB",
"i c #BABBBD",
"p c #BDBEC1",
"a c #BFC0C2",
"s c #C3C4C6",
"d c #C5C6C9",
"f c #C7C8CA",
"g c #CBCCCD",
"h c #CECFD1",
"j c #CFD0D2",
"k c #D1D2D3",
"l c #D6D7D8",
"z c #D7D8D8",
"x c #DADBDC",
"c c #DFDFE1",
"v c #DFE0E1",
"b c #E3E4E4",
"n c #E7E8E7",
"m c #E7E7E8",
"M c #E7E8E9",
"N c #EBECEC",
"B c #EFEFF0",
"V c #EFF0F0",
"C c #F4F4F4",
"Z c #F7F7F8",
"A c #F7F8F8",
"S c #FCFDFD",
"D c None",
/* pixels */
"DDDDDDDDDDDDDDDDDDDDDDDDDDDDDDDD",
"DDDDDDDDDDDD        DDDDDDDDDDDD",
"DDDDDDDDD   O$=--=$O   DDDDDDDDD",
"DDDDDDD  o*7gbCCCVng7*X  DDDDDDD",
"DDDDDD  $wmZSAAAAASAAnw$  DDDDDD",
"DDDDD X;lASCMlgdfgbASAAz-X DDDDD",
"DDDD X,bAAbdy75559thSSSAn,X DDDD",
"DDD  ;nAChuyq*1555=1MzlCSb;  DDD",
"DDD $zACgislr1SSSA55iuyhZAz$ DDD",
"DD owZAzkMAS5ySSSC-9uphmSSAwo DD",
"DD *MSSCSSSC:zSSSz=scCSSSSAn* DD",
"DD 7ASSSSBxe-CSSSy1gbSSBxlZA7 DD",
"D OgASCbgpy15SSSS<$$dbgpyiMSgO D",
"D $bSvauyyi-sSSSAtt*tyyypgNSn$ D",
"D =CAguidxx-cSSSSSi-yidxBSSSC= D",
"D -CAklMCw:5CSSSz3=6lNASSSAAC- D",
"D -CSSSSc-kASSSS,3lCSSSAmkhAC- D",
"D =VASSNw1nASSSM;nSSANzdiygAB= D",
"D $bSNfi-%-MSSSg=iat9555esbSb$ D",
"D ofSMut,::SSSSk333322<$fCSSsO D",
"DD 6ZZlcV80SSSSSSSSSSSx:VSSA6 DD",
"DD $bSSSA>kSSSSSSSSSSSu1CSSb$ DD",
"DD X8ASSk&6wwwwwwwwww9-7zSA8X.DD",
"DDD +kAAs<><509www85<,<sZAk+ DDD",
"DDD  =bAZzxCSSSAVzdiuizCSc= .DDD",
"DDDD X-bZSSSSCbgpyypgMASc;. DDDD",
"DDDDD  =gZSSSbkggjxNASCg=X DDDDD",
"DDDDDD  +7xCASSAASSAAx7+  DDDDDD",
"DDDDDDDD..@1pzNNBMxa1@. DDDDDDDD",
"DDDDDDDDD   o+****+o   DDDDDDDDD",
"DDDDDDDDDDDD        DDDDDDDDDDDD",
"DDDDDDDDDDDDDDDDDDDDDDDDDDDDDDDD"
=======
"32 32 99 2 ",
"   c #305A9B",
".  c #315A9B",
"X  c #315B9C",
"o  c #325B9C",
"O  c #325C9C",
"+  c #335C9C",
"@  c #335C9D",
"#  c #335D9D",
"$  c #345D9D",
"%  c #355E9D",
"&  c #355E9E",
"*  c #365F9E",
"=  c #375F9E",
"-  c #37609F",
";  c #38609F",
":  c #39619F",
">  c #3A62A0",
",  c #3B62A0",
"<  c #3C63A1",
"1  c #3E65A2",
"2  c #4167A3",
"3  c #4268A4",
"4  c #4369A4",
"5  c #476CA6",
"6  c #486DA6",
"7  c #486DA7",
"8  c #496EA7",
"9  c #4A6EA7",
"0  c #4A6FA8",
"q  c #5174AB",
"w  c #5275AB",
"e  c #5577AD",
"r  c #5678AD",
"t  c #5779AE",
"y  c #5A7BAF",
"u  c #6382B4",
"i  c #6483B4",
"p  c #6484B4",
"a  c #6C8AB8",
"s  c #6D8BB9",
"d  c #6F8CBA",
"f  c #728EBB",
"g  c #7792BD",
"h  c #7893BE",
"j  c #7A95BF",
"k  c #8099C2",
"l  c #809AC2",
"z  c #839CC3",
"x  c #849DC4",
"c  c #8CA3C7",
"v  c #92A8CB",
"b  c #94AACC",
"n  c #98ADCD",
"m  c #9EB2D0",
"M  c #9FB2D1",
"N  c #A0B3D1",
"B  c #A1B4D2",
"V  c #A2B5D2",
"C  c #A5B7D4",
"Z  c #AFBFD8",
"A  c #B0C0D9",
"S  c #B1C1D9",
"D  c #B2C1DA",
"F  c #B3C2DA",
"G  c #B3C3DA",
"H  c #B4C3DB",
"J  c #B6C5DC",
"K  c #B8C6DD",
"L  c #BCCADF",
"P  c #C5D1E3",
"I  c #C6D2E4",
"U  c #C9D4E5",
"Y  c #D0D9E8",
"T  c #D2DBE9",
"R  c #D3DCEA",
"E  c #D4DCEA",
"W  c #D4DDEA",
"Q  c #DEE5EF",
"!  c #DFE5EF",
"~  c #E1E7F0",
"^  c #E2E8F1",
"/  c #E4E9F2",
"(  c #E6EBF3",
")  c #EAEFF5",
"_  c #EBEFF5",
"`  c #ECF0F6",
"'  c #EDF1F6",
"]  c #F5F7FA",
"[  c #F7F9FB",
"{  c #F8F9FB",
"}  c #F8FAFC",
"|  c #F9FAFC",
" . c #FAFBFC",
".. c #FAFBFD",
"X. c #FBFCFD",
"o. c #FEFEFE",
"O. c #FEFEFF",
"+. c gray100",
"@. c None",
/* pixels */
"@.@.@.@.@.@.@.@.@.@.@.@.@.$ $ $ $ $ $ @.@.@.@.@.@.@.@.@.@.@.@.@.",
"@.@.@.@.@.@.@.@.@.@.$ $ $ $ $ $ $ $ $ $ $ $ @.@.@.@.@.@.@.@.@.@.",
"@.@.@.@.@.@.@.@.$ $ $ $ $ $ $ $ $ $ $ $ $ $ $ $ @.@.@.@.@.@.@.@.",
"@.@.@.@.@.@.@.$ $ $ $ $ $ $ $ $ + + + $ $ $ $ $ $ @.@.@.@.@.@.@.",
"@.@.@.@.@.$ $ $ $ $ $ $ $ $ $ > 1 1 1 ; $ $ $ $ $ $ $ @.@.@.@.@.",
"@.@.@.@.$ $ $ $ $ $ $ $ $ + 2 H W R E h X $ $ $ $ $ $ $ @.@.@.@.",
"@.@.@.@.$ $ $ $ $ $ $ $ $ X i ] +.+.} f X $ $ $ $ $ $ $ @.@.@.@.",
"@.@.@.$ $ $ $ $ $ $ $ $ $ X b +.+.+.^ 9 + $ $ $ $ $ $ $ $ @.@.@.",
"@.@.$ $ $ $ $ $ $ $ $ $ $ , I +.+.+.K $ $ $ $ $ $ $ $ $ $ $ @.@.",
"@.@.$ $ $ $ $ $ $ $ $ $ X r _ +.+.+.z X $ $ $ $ $ $ $ $ $ $ @.@.",
"@.$ $ $ $ $ $ $ $ $ $ $   l +.+.+.` t + $ $ $ $ $ $ $ $ $ $ $ @.",
"@.$ $ $ $ $ $ $ $ $ $ $ $ F +.+.+.U , $ $ $ $ $ $ $ $ $ $ $ $ @.",
"@.$ $ $ $ $ $ $ $ $ $ + 7 ! +.+.+.n X $ $ $ $ $ $ $ $ $ $ $ $ @.",
"$ $ $ $ $ $ $ $ $ $ + X s } +.+.] p - > $ $ $ $ $ $ $ $ $ $ $ $ ",
"$ $ $ $ $ $ $ $ $ $ $ + M +.+.+.` B L t X $ $ $ $ $ $ $ $ $ $ $ ",
"$ $ $ $ $ $ $ $ $ +   1 Y +.+.+.+.| I 4 + $ $ $ $ $ $ $ $ $ $ $ ",
"$ $ $ $ $ $ $ $ + 5 g F [ +.+.X.C u 2 $ $ $ $ $ $ $ $ $ $ $ $ $ ",
"$ $ $ $ $ $ $ $ > K } X.+.+.+.^ 9   + $ $ $ $ $ $ $ $ $ $ $ $ $ ",
"$ $ $ $ $ $ $ @ 4 v j T +.+.+.K $ $ $ $ $ $ $ $ $ $ $ $ $ $ $ $ ",
"@.$ $ $ $ $ $ $ $ X q ) +.+.+.z X $ $ $ $ $ $ $ $ $ $ $ $ $ $ @.",
"@.$ $ $ $ $ $ $ $ X l +.+.+.` r X $ + + + + $ + $ $ $ $ $ $ $ @.",
"@.$ $ $ $ $ $ $ $ $ F +.+.+.T q 9 9 9 9 9 9 7 2 $ $ $ $ $ $ $ @.",
"@.@.$ $ $ $ $ $   9 Q +.+.+.] ^ ^ / / / / / / F ; $ $ $ $ $ @.@.",
"@.@.$ $ $ $ $ $ X a } +.+.+.+.+.+.+.+.+.+.+.+.B + $ $ $ $ $ @.@.",
"@.@.@.$ $ $ $ $ $ B +.+.+.+.+.+.+.+.+.+.+.+.} s   $ $ $ $ @.@.@.",
"@.@.@.@.$ $ $ $ & c F A Z Z A A Z Z Z A Z F N 4 $ $ $ $ @.@.@.@.",
"@.@.@.@.$ $ $ $ & + & + + + + + + + + & + + + + $ $ $ $ @.@.@.@.",
"@.@.@.@.@.$ $ $ + & + $ + + - + + + $ $ + + $ $ $ $ $ @.@.@.@.@.",
"@.@.@.@.@.@.@.$ $ $ $ $ $ $ $ $ + & + & $ $ $ $ $ @.@.@.@.@.@.@.",
"@.@.@.@.@.@.@.@.$ $ $ $ $ $ $ $ & + & + $ $ $ $ @.@.@.@.@.@.@.@.",
"@.@.@.@.@.@.@.@.@.@.$ $ $ $ $ $ $ $ + & $ $ @.@.@.@.@.@.@.@.@.@.",
"@.@.@.@.@.@.@.@.@.@.@.@.@.$ $ $ $ $ $ @.@.@.@.@.@.@.@.@.@.@.@.@."
>>>>>>> f22cd116c597213753b8cc77ff675ed5be18ec1d
};
